<svg width="359" height="90" viewBox="0 0 359 90" fill="none" xmlns="http://www.w3.org/2000/svg">
<path d="M358 1L314.5 62H231.25H156.5L176.364 30L193.5 1H358Z" fill="#081832"/>
<path d="M1 89L47.5 30H176.364M176.364 30L193.5 1H358L314.5 62H231.25H156.5L176.364 30Z" stroke="#E8EBAE"/>
<path d="M229.119 37.6725V39H218.906V23.7976H228.926V25.1252H220.404V30.6066H227.834V31.8699H220.404V37.6725H229.119ZM231.889 23.7976L237.328 37.1372L242.745 23.7976H244.308L238.013 39H236.643L230.326 23.7976H231.889ZM256.699 37.6725V39H246.486V23.7976H256.507V25.1252H247.985V30.6066H255.415V31.8699H247.985V37.6725H256.699ZM261.032 26.5598V39H259.534V23.7976H260.776L270.753 36.4734V23.8191H272.252V39H270.86L261.032 26.5598ZM286.865 25.1252H281.448V39H279.949V25.1252H274.532V23.7976H286.865V25.1252ZM298.028 26.6454C297.814 26.4027 297.564 26.1886 297.279 26.0031C296.993 25.8032 296.672 25.6319 296.315 25.4892C295.958 25.3464 295.573 25.2322 295.159 25.1466C294.759 25.0609 294.331 25.0181 293.874 25.0181C292.547 25.0181 291.569 25.2751 290.941 25.7889C290.327 26.2885 290.02 26.9737 290.02 27.8445C290.02 28.444 290.163 28.9151 290.448 29.2576C290.748 29.6002 291.212 29.8786 291.84 30.0927C292.468 30.3068 293.267 30.5281 294.238 30.7565C295.323 30.9849 296.258 31.2561 297.043 31.5701C297.828 31.8842 298.435 32.3124 298.863 32.8548C299.291 33.383 299.505 34.1038 299.505 35.0174C299.505 35.7169 299.37 36.3235 299.099 36.8374C298.827 37.3513 298.449 37.7795 297.964 38.1221C297.478 38.4647 296.9 38.7216 296.229 38.8929C295.558 39.05 294.823 39.1285 294.024 39.1285C293.239 39.1285 292.482 39.05 291.754 38.8929C291.041 38.7216 290.363 38.479 289.72 38.1649C289.078 37.8366 288.478 37.4227 287.922 36.9231L288.671 35.7026C288.942 35.9881 289.263 36.2593 289.635 36.5162C290.02 36.7589 290.441 36.9802 290.898 37.18C291.369 37.3798 291.869 37.5369 292.397 37.6511C292.939 37.751 293.496 37.8009 294.067 37.8009C295.28 37.8009 296.222 37.5797 296.893 37.1372C297.578 36.6947 297.921 36.038 297.921 35.1673C297.921 34.5392 297.75 34.0396 297.407 33.6685C297.064 33.2831 296.551 32.969 295.865 32.7264C295.18 32.4837 294.338 32.2482 293.339 32.0198C292.282 31.7771 291.39 31.5059 290.662 31.2061C289.934 30.9064 289.385 30.5138 289.014 30.0285C288.657 29.5289 288.478 28.8722 288.478 28.0586C288.478 27.1165 288.707 26.3242 289.164 25.6819C289.635 25.0253 290.277 24.5328 291.091 24.2045C291.904 23.8619 292.839 23.6906 293.896 23.6906C294.566 23.6906 295.187 23.762 295.758 23.9047C296.344 24.0332 296.879 24.2259 297.364 24.4828C297.864 24.7398 298.328 25.0609 298.756 25.4464L298.028 26.6454Z" fill="#E8EBAE"/>
</svg>
